<svg xmlns="http://www.w3.org/2000/svg" viewBox="0 0 1024 1024">
  <defs>
    <linearGradient id="bg" x1="160" y1="96" x2="864" y2="928" gradientUnits="userSpaceOnUse">
      <stop offset="0" stop-color="#1dd3a7"/>
      <stop offset="0.52" stop-color="#2176ff"/>
      <stop offset="1" stop-color="#14213d"/>
    </linearGradient>
    <linearGradient id="chip" x1="300" y1="260" x2="760" y2="760" gradientUnits="userSpaceOnUse">
      <stop offset="0" stop-color="#f8fbff"/>
      <stop offset="1" stop-color="#b9d7ff"/>
    </linearGradient>
    <filter id="shadow" x="-20%" y="-20%" width="140%" height="140%">
      <feDropShadow dx="0" dy="32" stdDeviation="36" flood-color="#061428" flood-opacity="0.28"/>
    </filter>
  </defs>
  <rect width="1024" height="1024" rx="224" fill="url(#bg)"/>
  <g opacity="0.22" fill="none" stroke="#ffffff" stroke-width="28" stroke-linecap="round">
    <path d="M178 274h170"/>
    <path d="M676 274h170"/>
    <path d="M178 750h170"/>
    <path d="M676 750h170"/>
    <path d="M274 178v170"/>
    <path d="M750 178v170"/>
    <path d="M274 676v170"/>
    <path d="M750 676v170"/>
  </g>
  <g filter="url(#shadow)">
    <rect x="286" y="286" width="452" height="452" rx="98" fill="#0b1730"/>
    <rect x="338" y="338" width="348" height="348" rx="72" fill="url(#chip)"/>
    <path d="M432 574l72-156 42 94h52l-42 94-42-94h-52z" fill="#1557d8"/>
    <path d="M394 650h236" stroke="#0f2a55" stroke-width="34" stroke-linecap="round"/>
  </g>
  <g stroke="#ffffff" stroke-width="34" stroke-linecap="round" opacity="0.9">
    <path d="M286 402h-86"/>
    <path d="M286 512h-86"/>
    <path d="M286 622h-86"/>
    <path d="M824 402h-86"/>
    <path d="M824 512h-86"/>
    <path d="M824 622h-86"/>
    <path d="M402 286v-86"/>
    <path d="M512 286v-86"/>
    <path d="M622 286v-86"/>
    <path d="M402 824v-86"/>
    <path d="M512 824v-86"/>
    <path d="M622 824v-86"/>
  </g>
</svg>
